Coordinates
version=1
nRows=17
nColumns=36
inDegrees=yes

Units are S.I. units (second, meters, Newtons, ...)
If the header above contains a line with 'inDegrees', this indicates whether rotational values are in degrees (yes) or radians (no).

endheader
time	pelvis_tilt	pelvis_list	pelvis_rotation	pelvis_tx	pelvis_ty	pelvis_tz	hip_flexion_r	hip_adduction_r	hip_rotation_r	knee_angle_r	knee_angle_r_beta	ankle_angle_r	subtalar_angle_r	mtp_angle_r	hip_flexion_l	hip_adduction_l	hip_rotation_l	knee_angle_l	knee_angle_l_beta	ankle_angle_l	subtalar_angle_l	mtp_angle_l	lumbar_extension	lumbar_bending	lumbar_rotation	arm_flex_r	arm_add_r	arm_rot_r	elbow_flex_r	pro_sup_r	arm_flex_l	arm_add_l	arm_rot_l	elbow_flex_l	pro_sup_l
      1.55000000	      5.80139491	      1.59982306	      4.68362060	     -0.34685608	      1.28904737	     -0.07225418	     -9.50941170	     -0.48437768	      2.99556452	      4.16515568	      0.07269568	     12.00518058	    -11.16571321	     -7.49999987	    -10.80166948	      0.03225213	      7.48199945	      0.24760786	      0.00432157	      9.89796026	    -10.18422749	     -7.49999987	    -14.07801283	      1.38639872	      1.05407783	      6.36966372	     -5.31238333	      8.65315230	     31.43279499	     79.88019580	      6.20150789	     -4.20653547	      8.12736278	     31.70342771	     86.82933394
      1.56666670	      5.89278082	      1.58470216	      4.69438005	     -0.34735435	      1.28933159	     -0.07227396	     -9.80315620	     -0.41682774	      3.05879701	      4.00753283	      0.06994464	     12.00172963	    -11.08284579	     -7.49999987	    -11.06289331	     -0.05239786	      7.37544658	      0.25495542	      0.00444981	      9.86011652	    -10.35059823	     -7.49999987	    -14.10725744	      1.40074932	      1.06377126	      6.23011534	     -5.21967289	      8.02960717	     31.56012208	     81.76398986	      6.33307309	     -4.31963561	      8.09884994	     31.54071837	     89.02198874
      1.58333330	      5.92952136	      1.55848263	      4.71429464	     -0.34696990	      1.28611152	     -0.07229597	     -9.99691052	     -0.34657910	      3.02373792	      3.95595983	      0.06904452	     11.94473550	    -10.98997330	     -7.49999987	    -11.28249501	     -0.13346103	      7.25982454	      0.26658810	      0.00465284	      9.81138462	    -10.51699012	     -7.49999987	    -13.98417569	      1.41758978	      1.05242794	      6.17184284	     -5.19177592	      8.17117549	     31.50318505	     80.70546954	      6.38921916	     -4.41161934	      8.39195324	     31.38900290	     87.66352562
      1.60000000	      5.76733355	      1.52677581	      4.69662962	     -0.35455084	      1.28361527	     -0.07466863	     -9.81864813	     -0.34306217	      3.02500152	      3.94139678	      0.06879035	     11.89208790	    -11.10004725	     -7.49999987	    -11.17546527	     -0.14598525	      7.09136898	      0.27472698	      0.00479489	      9.68605994	    -10.88967780	     -7.49999987	    -13.81751598	      1.45338389	      1.02680938	      6.26495128	     -5.27573324	      8.50720066	     31.57809478	     79.13797743	      6.76482986	     -4.57754184	      9.06615072	     31.15182033	     85.66683569
      1.61666670	      5.76299376	      1.55292526	      4.75923028	     -0.35388287	      1.28622000	     -0.07466186	     -9.87213821	     -0.37219183	      3.05268536	      3.83331880	      0.06690403	     11.79146938	    -11.08815268	     -7.49999987	    -11.22030469	     -0.13666308	      7.06300094	      0.28379686	      0.00495319	      9.42788512	    -11.25199607	     -7.49999987	    -13.95263484	      1.47047993	      0.95236476	      6.31372745	     -5.25298472	      7.82858361	     31.90543532	     81.35087281	      7.07855930	     -4.66720245	      8.90196128	     31.15055733	     88.64212719
      1.63333330	      5.82663860	      1.57564818	      4.77648377	     -0.34639988	      1.29239049	     -0.07241977	    -10.05084902	     -0.37050717	      2.90934211	      3.77001477	      0.06579917	     11.84500165	    -10.65121661	     -7.49999987	    -11.38770343	     -0.15721961	      6.89562375	      0.30099541	      0.00525336	      9.19212562	    -11.37251505	     -7.49999987	    -14.06633256	      1.44818788	      0.83980606	      6.21894136	     -5.17322059	      7.82156669	     32.14609749	     80.31162637	      7.05670392	     -4.76782050	      8.84469902	     31.34969624	     87.18914540
      1.65000000	      5.71976899	      1.52817814	      4.67632969	     -0.35322567	      1.28860991	     -0.07457263	     -9.87411182	     -0.35630100	      2.99429312	      3.84431158	      0.06709589	     11.83834623	    -10.82643851	     -7.49999987	    -11.23339247	     -0.14805108	      6.68827912	      0.31535678	      0.00550401	      9.13633693	    -11.56912012	     -7.49999987	    -14.01091492	      1.51112460	      0.80481030	      6.29992732	     -5.24429651	      7.77757166	     32.07193788	     81.51522605	      7.28444958	     -4.77214807	      8.43949208	     31.28789977	     88.83647899
      1.66666670	      5.71785281	      1.58006541	      4.73464527	     -0.35381735	      1.28637211	     -0.07468702	     -9.81363106	     -0.41352986	      2.94466100	      3.90375038	      0.06813330	     11.70693294	    -10.99993533	     -7.49999987	    -11.16307968	     -0.06196425	      6.73633507	      0.32074428	      0.00559804	      9.02754051	    -11.81027058	     -7.49999987	    -14.13397843	      1.48585590	      0.62484122	      6.38747604	     -5.26858967	      7.99677664	     32.16978718	     79.49840429	      7.47538700	     -4.91528485	      8.79387567	     31.43331941	     86.17083819
      1.68333330	      5.66005750	      1.64275713	      4.79116918	     -0.36014752	      1.28874730	     -0.07690914	     -9.53845402	     -0.55813971	      2.50820693	      4.07405248	      0.07110563	     11.84215830	    -10.56849364	     -7.49999987	    -10.95173486	      0.11646997	      6.71032501	      0.33334604	      0.00581799	      8.97487306	    -12.08476285	     -7.49999987	    -14.44249600	      1.47204055	      0.35413868	      6.69725327	     -5.38575953	      7.90755767	     32.64059409	     78.66787479	      7.92404623	     -5.03659295	      8.80319213	     31.72761933	     85.03720259
      1.70000000	      5.60451724	      1.70342531	      4.65185195	     -0.36043135	      1.28633546	     -0.07665123	     -9.15708313	     -0.68355475	      2.88172310	      4.31051069	      0.07523260	     11.72898398	    -10.99016604	     -7.49999987	    -10.71708295	      0.32265867	      6.69772407	      0.35713839	      0.00623324	      8.72159173	    -12.59900827	     -7.49999987	    -14.67373632	      1.41603998	      0.41288913	      7.04725949	     -5.54733364	      8.11391469	     32.99937531	     78.04604627	      8.39861134	     -5.14779380	      9.14817706	     31.72646280	     84.24443068
      1.71666670	      5.61185886	      1.77886435	      4.61717765	     -0.35976224	      1.28657576	     -0.07655918	     -8.90506188	     -0.81618057	      2.85580820	      4.53709308	      0.07918721	     11.66130713	    -10.99521625	     -7.49999987	    -10.55102254	      0.50577192	      6.65191126	      0.39631624	      0.00691702	      8.80103698	    -12.64852170	     -7.49999987	    -14.95933738	      1.36136176	      0.31476872	      7.42342065	     -5.61063088	      8.08146649	     33.23894333	     78.09881542	      8.73742031	     -5.24239329	      9.12083968	     31.83167970	     84.32165493
      1.73333330	      5.69934708	      1.85868424	      4.46795292	     -0.35982014	      1.28688439	     -0.07633988	     -8.71099964	     -0.93157230	      2.97585997	      4.92809342	      0.08601146	     11.85284632	    -10.97663840	     -7.49999987	    -10.50202675	      0.69213328	      6.33490778	      0.45392222	      0.00792244	      8.97346943	    -12.42054991	     -7.49999987	    -15.45693118	      1.24931346	      0.30569191	      7.66878093	     -5.75303939	      7.97932342	     34.29911554	     77.05254923	      8.99467106	     -5.36820578	      8.97746970	     32.43586983	     82.91560372
      1.75000000	      5.62969416	      1.94143188	      4.44576806	     -0.35907995	      1.28733477	     -0.07627341	     -8.44528684	     -1.06546854	      3.01871273	      5.20906320	      0.09091530	     11.73507100	    -11.08259143	     -7.49999987	    -10.32070138	      0.84345406	      6.38305605	      0.53974364	      0.00942030	      8.67127823	    -13.06639856	     -7.49999987	    -15.71127202	      1.13182970	      0.26704182	      7.61578032	     -5.79096973	      6.74853345	     35.38247374	     81.68565146	      9.16588168	     -5.37458569	      7.90184183	     32.76573766	     88.95165476
      1.76666670	      5.51498839	      1.99141653	      4.32971504	     -0.35926886	      1.28482052	     -0.07618146	     -8.14797975	     -1.19147132	      2.93318468	      5.52049148	      0.09635075	     11.76867653	    -10.97668969	     -7.49999987	    -10.11821426	      0.97695517	      6.16807755	      0.64251763	      0.01121405	      8.50502950	    -13.40861196	     -7.49999987	    -15.91997800	      1.04092313	      0.23945022	      7.77447063	     -5.98657467	      7.00519422	     36.12700165	     80.26185151	      9.29488605	     -5.52430197	      8.08022662	     33.06619713	     86.98379962
      1.78333330	      5.39197041	      2.07806301	      4.23220086	     -0.35847664	      1.28480231	     -0.07591100	     -7.86262077	     -1.33946437	      2.89672116	      5.77513899	      0.10079519	     11.79704793	    -11.00106155	     -7.49999987	     -9.90583337	      1.13120498	      5.93655413	      0.74881200	      0.01306923	      8.43921035	    -13.64384459	     -7.49999987	    -16.21137062	      0.83811616	      0.22078706	      7.76354237	     -6.01210790	      6.51465137	     36.98824956	     81.68838686	      9.36673077	     -5.60784373	      7.75905768	     33.52230548	     88.62382456
      1.80000000	      5.10699824	      2.19494876	      4.22652821	     -0.35890045	      1.27636997	     -0.07587183	     -7.40972061	     -1.51464701	      2.81790372	      6.09656346	      0.10640511	     12.05446013	    -11.00318922	     -7.49999987	     -9.51334059	      1.32386074	      5.84194484	      0.90293961	      0.01575927	      8.38663436	    -14.33387187	     -7.49999987	    -16.29041792	      0.57625310	      0.17162710	      7.72438554	     -6.15522937	      6.48317448	     37.70954527	     80.68771391	      9.37834402	     -5.77688052	      7.74957097	     34.15574806	     87.63566666
      1.81666670	      4.69514642	      2.28707237	      4.25318101	     -0.35783356	      1.27713178	     -0.07588466	     -6.81984078	     -1.67244319	      2.63954541	      6.44043478	      0.11240679	     12.28428547	    -11.00879864	     -7.49999987	     -8.93730534	      1.45815951	      5.59575710	      1.14970294	      0.02006610	      8.32057826	    -14.63911913	     -7.49999987	    -16.29088002	      0.31969937	      0.40940662	      7.38113720	     -6.31808012	      5.72563671	     38.58798098	     80.87011505	      9.45630002	     -5.97628542	      8.10505098	     34.83396090	     88.32225513
